<svg xmlns="http://www.w3.org/2000/svg" width="260.397" height="115.443" viewBox="0 0 240.397 85.443">
  <g id="Group_31" data-name="Group 31" transform="translate(-58.19 -257.557)">
    <text id="Inventory_Inspection" data-name="Inventory &amp; Inspection" transform="translate(136.587 328.467)" fill="#3d3d3d" font-size="19.0" font-family="Montserrat-Medium, Montserrat-Medium" font-weight="800"><tspan x="0" y="0">InventoryWise</tspan></text>
    <g id="Group_29" data-name="Group 29">
      <path id="Path_17" data-name="Path 17" d="M122.852,281.992,92.777,258.445a4.165,4.165,0,0,0-5.262.1L59.668,282.091a4.168,4.168,0,0,0-1.478,3.185V338.83a4.17,4.17,0,1,0,8.34,0V287.211L90.309,267.1l25.8,20.2v27.006h-25.9a4.17,4.17,0,0,0,0,8.34h30.075a4.17,4.17,0,0,0,4.17-4.17V285.276A4.171,4.171,0,0,0,122.852,281.992Z" fill="#0a80ea"/>
      <rect id="Rectangle_46" data-name="Rectangle 46" width="9.252" height="9.252" transform="translate(80.883 285.415)" fill="#0a80ea"/>
      <rect id="Rectangle_47" data-name="Rectangle 47" width="9.252" height="9.252" transform="translate(92.508 285.415)" fill="#0a80ea"/>
      <rect id="Rectangle_48" data-name="Rectangle 48" width="9.252" height="9.252" transform="translate(80.883 296.446)" fill="#0a80ea"/>
      <rect id="Rectangle_49" data-name="Rectangle 49" width="9.252" height="9.252" transform="translate(92.508 296.446)" fill="#0a80ea"/>
    </g>
    <g id="Group_30" data-name="Group 30">
      <path id="Path_18" data-name="Path 18" d="M150.594,302h0a10.348,10.348,0,1,0,0-20.7h-9.789a2.728,2.728,0,0,0-2.728,2.727v23.733a2.728,2.728,0,0,0,5.456,0V302h7.059m4.508-8.444a4.88,4.88,0,0,1-4.508,2.988h-7.059V286.76h7.059a4.869,4.869,0,0,1,1.9.384,4.921,4.921,0,0,1,2.154,1.775,4.907,4.907,0,0,1,.451,4.637Z" fill="#3d3d3d"/>
      <path id="Path_19" data-name="Path 19" d="M187.293,306.1l-4.945-6.4h0a9.667,9.667,0,0,0-4.15-18.4H166.774a2.728,2.728,0,0,0-2.728,2.728v23.733a2.728,2.728,0,1,0,5.456,0v-7.129h6.674l6.8,8.8.009-.007a2.717,2.717,0,1,0,4.3-3.323ZM169.5,286.76h8.7c4.765,0,5.865,6.8,1.253,8.231a4.211,4.211,0,0,1-1.253.189h-.657c.035,0,.07,0,.1,0s.091.017.136.021c-.077-.007-.152-.023-.231-.023.032,0,.064,0,.1,0-.034,0-.068,0-.1,0h-.007c-.016,0-.031.005-.048.005v-.005H169.5Z" fill="#3d3d3d"/>
      <path id="Path_20" data-name="Path 20" d="M206.41,280.605h-.181v.008a15.451,15.451,0,0,0,.178,30.9h.005a15.455,15.455,0,0,0,15.452-15.434v-.021A15.456,15.456,0,0,0,206.41,280.605Zm0,25.454h0a10,10,0,1,1,10-10A9.97,9.97,0,0,1,206.409,306.059Z" fill="#3d3d3d"/>
      <path id="Path_21" data-name="Path 21" d="M237.48,302h0a10.348,10.348,0,1,0,0-20.7h-9.788a2.727,2.727,0,0,0-2.728,2.727v23.733a2.728,2.728,0,0,0,5.456,0V302h7.058m4.509-8.444a4.88,4.88,0,0,1-4.508,2.988h-7.059V286.76h7.058a4.865,4.865,0,0,1,1.9.384,4.923,4.923,0,0,1,2.155,1.775,4.907,4.907,0,0,1,.451,4.637Z" fill="#3d3d3d"/>
      <path id="Path_22" data-name="Path 22" d="M270.251,286.76a2.728,2.728,0,1,0,0-5.455H254.746a2.54,2.54,0,0,0-.317-.032A2.728,2.728,0,0,0,251.7,284l0,.016,0,.015v23.733a2.728,2.728,0,0,0,2.728,2.728h15.822a2.728,2.728,0,0,0,0-5.456H257.157v-6.41h10.775a2.728,2.728,0,0,0,0-5.456H257.157V286.76Z" fill="#3d3d3d"/>
      <path id="Path_23" data-name="Path 23" d="M294,305.037H282.681v-21a2.728,2.728,0,0,0-5.456,0v23.733a2.728,2.728,0,0,0,2.728,2.728H294a2.728,2.728,0,0,0,0-5.456Z" fill="#3d3d3d"/>
    </g>
  </g>
</svg>
